<svg xmlns="http://www.w3.org/2000/svg" enable-background="new 0 0 64 64" version="1.0" viewBox="0 0 64 64"><path fill="none" stroke="#231f20" stroke-linecap="round" stroke-linejoin="round" stroke-miterlimit="10" stroke-width="2" d="M35.18,43.07H6.38c-2.1,0-3.79-1.7-3.79-3.79v-7.84h35.83c0.31,0,0.55,0.25,0.55,0.55v7.28
		C38.97,41.37,37.27,43.07,35.18,43.07z"/><path fill="none" stroke="#231f20" stroke-linecap="round" stroke-linejoin="round" stroke-miterlimit="10" stroke-width="2" d="M35.18 31.44l5.77-5.68c.48-.47 1.12-.73 1.79-.73h6.62v2.86h-5.83l-4.55 4.25M60.43 28.96H50.34c-.54 0-.98-.44-.98-.98v-3.17c0-.54.44-.98.98-.98h10.09c.54 0 .98.44.98.98v3.17C61.41 28.52 60.97 28.96 60.43 28.96zM19.87 31.44L37.84 9.67c.61-.74 1.73-.81 2.43-.15l0 0c.64.61.7 1.61.13 2.28L23.85 31.44M9.34 17.94c0 0-1.71 1.29.18 3.85 1.34 1.82.05 3.19.05 3.19M12.72 10.99c0 0-1.71 1.29.18 3.85 1.34 1.82.05 3.19.05 3.19M18.3 16.56c0 0-1.71 1.29.18 3.85 1.34 1.82.05 3.19.05 3.19M10.13 46.78c0 0-4.83 8.15 0 8.15S10.13 46.78 10.13 46.78zM20.15 46.69c0 0-4.83 8.15 0 8.15C24.98 54.84 20.15 46.69 20.15 46.69zM29.8 46.74c0 0-4.83 8.15 0 8.15C34.63 54.89 29.8 46.74 29.8 46.74z"/></svg>