<svg xmlns="http://www.w3.org/2000/svg" width="48" height="48" viewBox="0 0 48 48"><path d="M 24 0 C 10.751089 0 -2.3684758e-015 10.751088 0 24 C 0 37.248912 10.751088 48 24 48 C 37.248912 48 48 37.248912 48 24 C 48 10.751088 37.248912 -1.0000001e-007 24 0 z M 24 1 C 36.708472 0.99999985 47 11.291528 47 24 C 47 36.708472 36.708472 47 24 47 C 11.291529 47 1 36.708472 1 24 C 1 11.291529 11.291529 1 24 1 z M 14.5 14 C 13.121 14 12 15.121 12 16.5 L 12 29 L 10.5 29 C 10.224 29 10 29.224 10 29.5 L 10 30.5 C 10 31.879 11.121 33 12.5 33 L 35.5 33 C 36.879 33 38 31.879 38 30.5 L 38 29.5 C 38 29.224 37.776 29 37.5 29 L 36.908203 29 C 36.964203 28.843 37 28.676 37 28.5 L 37 19.5 C 37 18.849 36.581 18.298797 36 18.091797 L 36 16.5 C 36 15.121 34.879 14 33.5 14 L 14.5 14 z M 14.5 15 L 33.5 15 C 34.327 15 35 15.673 35 16.5 L 35 18 L 34 18 L 34 16.5 C 34 16.224 33.776 16 33.5 16 L 14.5 16 C 14.224 16 14 16.224 14 16.5 L 14 27.5 C 14 27.776 14.224 28 14.5 28 L 29 28 L 29 28.5 C 29 28.66 29.032125 28.810078 29.078125 28.955078 C 29.083125 28.969078 29.080938 28.987 29.085938 29 L 13 29 L 13 16.5 C 13 15.673 13.673 15 14.5 15 z M 15 17 L 33 17 L 33 18 L 30.5 18 C 29.673 18 29 18.673 29 19.5 L 29 27 L 15 27 L 15 17 z M 30.5 19 L 33.5 19 L 35.5 19 C 35.775 19 36 19.225 36 19.5 L 36 28.5 C 36 28.775 35.775 29 35.5 29 L 30.5 29 C 30.225 29 30 28.775 30 28.5 L 30 27.5 L 30 19.5 C 30 19.225 30.225 19 30.5 19 z M 32.5 20 C 32.224 20 32 20.224 32 20.5 C 32 20.776 32.224 21 32.5 21 L 33.5 21 C 33.776 21 34 20.776 34 20.5 C 34 20.224 33.776 20 33.5 20 L 32.5 20 z M 33 27 A 0.5 0.5 0 0 0 32.5 27.5 A 0.5 0.5 0 0 0 33 28 A 0.5 0.5 0 0 0 33.5 27.5 A 0.5 0.5 0 0 0 33 27 z M 11 30 L 12.5 30 L 21 30 C 21 30.552 21.448 31 22 31 L 26 31 C 26.552 31 27 30.552 27 30 L 30.5 30 L 35.5 30 L 37 30 L 37 30.5 C 37 31.327 36.327 32 35.5 32 L 12.5 32 C 11.673 32 11 31.327 11 30.5 L 11 30 z "/></svg>