<svg xmlns="http://www.w3.org/2000/svg" viewBox="0 0 97 78.98"><path d="M88.87 26.91v-16A10.93 10.93 0 0 0 78 0H19A10.93 10.93 0 0 0 8.13 10.92v16A11.05 11.05 0 0 0 0 37.54v29.34a1.5 1.5 0 0 0 1.5 1.5h6.27v9.1a1.5 1.5 0 1 0 3 0v-9.1h75.46v9.1a1.5 1.5 0 0 0 3 0v-9.1h6.27a1.5 1.5 0 0 0 1.5-1.5V37.54a11.05 11.05 0 0 0-8.13-10.63Zm-3-16v15.6a11.05 11.05 0 0 0-11 11V47H50V3.47a1.47 1.47 0 0 0-.08-.47H78a7.93 7.93 0 0 1 7.87 7.92ZM19 3h28a1.47 1.47 0 0 0-.08.47V47H22.08v-9.46a11.05 11.05 0 0 0-11-11V10.92A7.93 7.93 0 0 1 19 3Zm75 62.38H3V37.54a8 8 0 1 1 16.08 0v11a1.5 1.5 0 0 0 1.5 1.5h55.84a1.5 1.5 0 0 0 1.5-1.5v-11a8 8 0 1 1 16.08 0Z" data-name="Layer 2"/></svg>