<svg xmlns="http://www.w3.org/2000/svg" data-name="Layer 1" viewBox="0 0 64 64"><path d="M61 2H51a1 1 0 0 0-1 1A5 5 0 0 1 40 3a1 1 0 0 0-1-1H29a1 1 0 0 0-1 1v9a1 1 0 0 0 1 1h3V31a1 1 0 0 0 1 1H57a1 1 0 0 0 1-1V13h3a1 1 0 0 0 1-1V3A1 1 0 0 0 61 2zm-1 9H57a1 1 0 0 0-1 1V30H34V12a1 1 0 0 0-1-1H30V4h8.071A7 7 0 0 0 51.929 4H60zM27 32H3a1 1 0 0 0-1 1V61a1 1 0 0 0 1 1h9a1 1 0 0 0 .992-.876L14.883 46h.234l1.891 15.124A1 1 0 0 0 18 62h9a1 1 0 0 0 1-1V33A1 1 0 0 0 27 32zM4 34H8.583A4.866 4.866 0 0 1 9 36a5.006 5.006 0 0 1-5 5zM26 60H18.883L16.992 44.876A1 1 0 0 0 16 44H14a1 1 0 0 0-.992.876L11.117 60H4V43a7.008 7.008 0 0 0 7-7 6.96 6.96 0 0 0-.3-2H14v4a1 1 0 0 0 2 0V34h3.3A6.973 6.973 0 0 0 26 43zm0-19a5.006 5.006 0 0 1-5-5 4.866 4.866 0 0 1 .417-2H26z"/><path d="M48,13v4a1,1,0,0,0,1,1h4a1,1,0,0,0,1-1V13a1,1,0,0,0-1-1H49A1,1,0,0,0,48,13Zm2,1h2v2H50Z"/></svg>