<svg xmlns="http://www.w3.org/2000/svg" viewBox="0 0 64 64"><g data-name="Free"><path fill="#37e288" d="M23.684 47.328a1 1 0 0 1-.707-.293l-6.013-6.012a1 1 0 0 1 0-1.414l3.25-3.25a1 1 0 0 1 1.414 1.414l-2.543 2.543 5.306 5.305a1 1 0 0 1-.707 1.707Z"/><path fill="#37e288" d="M20.678 44.322a1 1 0 0 1-.707-1.707l2.323-2.323a1 1 0 0 1 1.414 1.414l-2.323 2.323a1 1 0 0 1-.707.293zm8.728-2.716a.993.993 0 0 1-.707-.293l-3-3-.013-.012-3-3a1 1 0 0 1 0-1.414l1.747-1.747a3.126 3.126 0 0 1 4.478 4.36l3.7-.144a.98.98 0 0 1 1.038.96 1 1 0 0 1-.96 1.038l-3.97.155 1.394 1.391a1 1 0 0 1-.707 1.707zm-4.6-7.011 1.594 1.592 1.04-1.04a1.126 1.126 0 0 0-1.592-1.592zm10.321 1.29a1 1 0 0 1-.707-.293l-6.012-6.013a1 1 0 0 1 0-1.414l3.249-3.249a1 1 0 0 1 1.414 1.414l-2.542 2.542 4.6 4.6 2.543-2.542a1 1 0 0 1 1.414 1.414l-3.25 3.249a1 1 0 0 1-.709.292z"/><path fill="#37e288" d="M32.121 32.879a1 1 0 0 1-.707-1.707L33.7 28.89a1 1 0 0 1 1.41 1.41l-2.282 2.282a1 1 0 0 1-.707.297zm8.728-2.716a1 1 0 0 1-.707-.293l-6.012-6.013a1 1 0 0 1 0-1.414l3.249-3.249a1 1 0 0 1 1.414 1.414l-2.542 2.542 4.6 4.6 2.543-2.542a1 1 0 1 1 1.414 1.414l-3.25 3.249a1 1 0 0 1-.709.292z"/><path fill="#37e288" d="M37.843 27.157a1 1 0 0 1-.707-1.707l2.282-2.282a1 1 0 0 1 1.414 1.414l-2.282 2.282a.993.993 0 0 1-.707.293Z"/><path fill="#546e7a" d="M24.654 57.332a5.98 5.98 0 0 1-4.243-1.754L8.422 43.589a6.007 6.007 0 0 1 0-8.485l6.647-6.648a1 1 0 0 1 1.414 1.414l-6.647 6.648a4.006 4.006 0 0 0 0 5.657l11.989 11.989a4.006 4.006 0 0 0 5.657 0l26.682-26.682a4.018 4.018 0 0 0 1.047-3.817l-2.583-10.128a3 3 0 0 0-2.166-2.166L40.334 8.788a4.023 4.023 0 0 0-3.816 1.048l-14.51 14.51a1 1 0 0 1-1.414-1.414L35.1 8.422a6.021 6.021 0 0 1 5.725-1.571l10.132 2.583a5 5 0 0 1 3.609 3.609l2.583 10.128a6.024 6.024 0 0 1-1.571 5.729L28.9 55.578a5.978 5.978 0 0 1-4.246 1.754Z"/><path fill="#546e7a" d="M18.783 27.157a1 1 0 0 1-.708-1.707l.534-.534a1 1 0 0 1 1.415 1.414l-.534.534a.993.993 0 0 1-.707.293zm29.154-7.804a3.264 3.264 0 0 1-2.326-.964 3.288 3.288 0 1 1 2.327.964zm0-4.579a1.289 1.289 0 0 0-.912 2.2 1.318 1.318 0 0 0 1.823 0 1.289 1.289 0 0 0-.911-2.2z"/></g></svg>